<svg xmlns="http://www.w3.org/2000/svg" width="570" height="408" viewBox="0 0 570 408">
    <g fill="none" fill-rule="evenodd">
        <path stroke="#58BAF4" stroke-linecap="round" stroke-linejoin="round" stroke-width=".5" d="M172 213L63 149.653l87.2-50.68L136.466 91"/>
        <path fill="#396AEB" d="M7 195.476L20.58 188 34 195.5 20.506 203z"/>
        <path fill="#0C1445" d="M7 196v7.542L19.845 211l.155-7.542zM33 147.384L59.5 163 86 147.384 59.44 133z"/>
        <path fill="#58BAF4" d="M119 207v23.178L60.012 265 60 241.884z"/>
        <path fill="#0C1445" d="M0 207v23.178L59 265l-.012-23.116z"/>
        <path fill="#396AEB" d="M59.506 173L0 207.494 59.506 242 119 207.494z"/>
        <path fill="#396AEB" d="M59.006 178L10 206.5 59.006 235 108 206.5z"/>
        <path fill="#60DA9A" d="M68.902 215.61L59.464 221 36 207.536 59.464 194 83 207.5l-14.098 8.11"/>
        <path fill="#0C1445" d="M59.464 204.904l14.048 8.072L83 207.518 59.464 194 36 207.554 45.463 213z"/>
        <path fill="#74FCBF" d="M60 86l-27 53.668L60 155zM33 147l27 15.427V201z"/>
        <path fill="#60DA9A" d="M59 86l27 53.668L59 155zM86 147l-27 15.427V201z"/>
        <path fill="#0C1445" d="M92 238v7.542L104.845 253l.155-7.542z"/>
        <path fill="#58BAF4" d="M119 238v7.512L106 253l.153-7.548z"/>
        <path fill="#396AEB" d="M92 230.476L105.58 223l13.42 7.488L105.506 238z"/>
        <path fill="#0C1445" d="M92 231v7.578L104.976 246l.024-7.506z"/>
        <path fill="#58BAF4" d="M119 231v7.548L106 246l.024-7.512z"/>
        <path fill="#74FCBF" d="M52 216.556L59.416 212 67 216.556 59.548 221z"/>
        <path fill="#795EFA" d="M104 203.487l7.554-4.487 7.446 4.5-7.494 4.5z"/>
        <path fill="#0C1445" d="M103 202v4.544l7.987 4.456.013-4.506z"/>
        <path fill="#5647F7" d="M119 202v4.525L111 211l.013-4.513z"/>
        <path fill="#396AEB" d="M60 216.487L67.542 212 75 216.5l-7.506 4.5z"/>
        <path fill="#0C1445" d="M59 216v4.544L66.987 225l.013-4.506z"/>
        <path fill="#58BAF4" d="M75 216v4.525L67 225l.013-4.513z"/>
        <path fill="#396AEB" d="M15 203.487L22.542 199 30 203.5l-7.506 4.5z"/>
        <path fill="#0C1445" d="M14 203v4.544L21.987 212l.013-4.506z"/>
        <path fill="#58BAF4" d="M30 203v4.525L22 212l.013-4.513z"/>
        <path fill="#795EFA" d="M28 186.487L35.542 182 43 186.5l-7.494 4.5z"/>
        <path fill="#0C1445" d="M28 186v4.556L35.987 195l.013-4.506z"/>
        <path fill="#5647F7" d="M43 186v4.525L35 195l.013-4.513z"/>
        <path fill="#795EFA" d="M66 253.476L79.58 246 93 253.488 79.494 261z"/>
        <path fill="#0C1445" d="M66 254v7.542L78.857 269l.143-7.554z"/>
        <path fill="#5647F7" d="M93 254v7.512L80 269l.142-7.56z"/>
        <path fill="#396AEB" d="M7 241.476L20.58 234 34 241.488 20.506 249z"/>
        <path fill="#0C1445" d="M7 242v7.542L19.845 257l.155-7.554z"/>
        <path fill="#58BAF4" d="M33 242v7.512L20 257l.153-7.56z"/>
        <path fill="#795EFA" d="M13 233.475L20.542 229 28 233.487 20.506 238z"/>
        <path fill="#0C1445" d="M12 234v4.55l7.987 4.45.013-4.5z"/>
        <path fill="#5647F7" d="M28 234v4.531L20 243l.013-4.506z"/>
        <path fill="#60DA9A" d="M60 86l-16.58 60L33 140.046zM33 147l27 54-15.686-47.534z"/>
        <path stroke="#58BAF4" stroke-dasharray="6" stroke-linecap="round" stroke-linejoin="round" stroke-width=".25" d="M390 201l76.748 44L514 217.337"/>
        <path fill="#74FCBF" d="M141 333.494L161.343 322 181 333.172 160.73 345z"/>
        <path fill="#60DA9A" d="M141 333v23.296L161 368l-.276-23.137z"/>
        <path fill="#74FCBF" d="M181 333v23.723L161.273 368 161 345.08z"/>
        <path fill="#396AEB" d="M121 368.006L141.343 356 161 367.662 140.717 380z"/>
        <path fill="#2891F9" d="M120 367v23.958L140 403l-.277-23.808z"/>
        <path fill="#2BBDF7" d="M160 367v24.409L140.273 403 140 379.421z"/>
        <path fill="#396AEB" d="M475 284.006L495.349 272 515 283.662 494.723 296z"/>
        <path fill="#2891F9" d="M475 284v23.958L495 320l-.277-23.808z"/>
        <path fill="#2BBDF7" d="M515 283v24.409L495.273 319 495 295.421z"/>
        <path fill="#396AEB" d="M475 252.994L495.349 241 515 252.662 494.723 265z"/>
        <path fill="#2891F9" d="M475 253v23.962L495 289l-.277-23.8z"/>
        <path fill="#2BBDF7" d="M515 252v24.409L495.273 288 495 264.421z"/>
        <path fill="#396AEB" d="M334 322.994L354.349 311 374 322.662 353.723 335z"/>
        <path fill="#2891F9" d="M334 322v23.962L354 358l-.277-23.8z"/>
        <path fill="#2BBDF7" d="M374 322v24.409L354.273 358 354 334.421z"/>
        <path fill="#396AEB" d="M161 367.006L181.349 355 201 366.662 180.723 379z"/>
        <path fill="#2891F9" d="M161 367v23.962L181 403l-.277-23.813z"/>
        <path fill="#2BBDF7" d="M201 366v24.413L181.273 402 181 378.417z"/>
        <path stroke="#091448" stroke-linecap="round" stroke-linejoin="round" d="M161 344.506L181.355 333 201 344.172 180.73 356zM180.5 356v23M201.5 345v23M160.5 345v23M121 345.5l20.343-11.5L161 345.178 140.717 357z"/>
        <path stroke="#091448" d="M181.5 333v22"/>
        <path stroke="#091448" stroke-linecap="round" stroke-linejoin="round" d="M529 230.488L549.349 219 569 230.166 548.724 242zM548.5 243v23M569.5 230v23"/>
        <path stroke="#091448" d="M549.5 219v22"/>
        <path stroke="#091448" stroke-linecap="round" stroke-linejoin="round" d="M495 295.5l20.349-11.5L535 295.178 514.724 307zM514.5 307v23M534.5 295v23"/>
        <path stroke="#091448" d="M514.5 284v22"/>
        <path fill="#396AEB" d="M266 341.994L286.343 330 306 341.662 285.717 354z"/>
        <path fill="#2891F9" d="M266 342v23.962L286 378l-.288-23.8z"/>
        <path fill="#2BBDF7" d="M306 341v24.409L286.285 377 286 353.421z"/>
        <path stroke="#091448" stroke-linecap="round" stroke-linejoin="round" d="M266 319.5l20.343-11.5L306 319.178 285.717 331zM286.5 331v23M306.5 320v23M266.5 320v23"/>
        <path stroke="#091448" d="M286.5 308v22"/>
        <path fill="#74FCBF" d="M455 151.5l20.343-11.5L495 151.178 474.717 163z"/>
        <path fill="#60DA9A" d="M455 151v23.305L475 186l-.277-23.145z"/>
        <path fill="#74FCBF" d="M495 151v23.731L475.273 186 475 163.073z"/>
        <path stroke="#091448" stroke-linecap="round" stroke-linejoin="round" d="M474 163.5l20.343-11.5L514 163.178 493.717 175zM494.5 175v23M514.5 163v23M474.5 163v23"/>
        <path stroke="#091448" d="M494.5 152v22"/>
        <path stroke="#091448" stroke-linecap="round" stroke-linejoin="round" d="M140.385 380l.23 23M120.38 368l.24 23"/>
        <path fill="#091448" d="M179 134.256V311l219-126.256V8z"/>
        <path fill="#396AEB" d="M186 137.256V314l219-126.256V11zM398.892 6L405 9.675 185.108 137 179 133.325z"/>
        <path fill="#091448" d="M179 134v176.363l6 3.637V137.637zM186 150L405 23.715V11L186 137.091z"/>
        <path fill="#FFF" d="M192 139.754c0 1.173 1.122 1.607 2.5.915 1.412-.733 2.34-2.003 2.5-3.423 0-1.173-1.122-1.607-2.5-.915-1.412.733-2.34 2.003-2.5 3.423zM200 134.754c0 1.173 1.122 1.607 2.5.915 1.412-.733 2.34-2.003 2.5-3.423 0-1.173-1.122-1.607-2.5-.915-1.412.733-2.34 2.003-2.5 3.423z"/>
        <path fill="#396AEB" d="M272 146.774V154l50-28.75V118zM272 161.774V169l50-28.737V133z"/>
        <path fill="#0C1445" d="M306 208.771V216l50-28.747V180z"/>
        <path fill="#FFF" d="M210 130.754c0 1.173 1.122 1.607 2.5.915 1.412-.733 2.34-2.003 2.5-3.423 0-1.173-1.122-1.607-2.5-.915-1.412.733-2.34 2.003-2.5 3.423z"/>
        <path fill="#74FCBF" d="M329 76.51l.306 88.49L388 131.477V43z"/>
        <path stroke="#FFF" stroke-linecap="round" stroke-linejoin="round" d="M361 88l-55 31.994V196l55-31.665z"/>
        <path fill="#FFF" d="M209 232.774V240l50-28.75V204zM209 246.771V254l50-28.747V218zM209 261.771V269l50-28.747V233z"/>
        <path stroke="#FFF" stroke-linecap="round" stroke-linejoin="round" d="M361 88l-18 10.671V124l18-10.562z"/>
        <path fill="#2BBDF7" d="M271 196.542V235l22-12.934V184z"/>
        <path stroke="#58BAF4" stroke-linecap="round" stroke-linejoin="round" stroke-width=".5" d="M262 284l67 38M172 239L63 302.233 124.658 338M315 245l142.13 83L479 315.225"/>
        <path stroke="#58BAF4" stroke-dasharray="6" stroke-linecap="round" stroke-linejoin="round" stroke-width=".25" d="M221 103l-38-21.915L210.455 65M126.21 250L161 270.266 117 296M346.88 226L381 244.962 210 343"/>
        <path fill="#0C1445" d="M183 68l-11 10.84L183 85z"/>
        <path fill="#AA9FFB" d="M183 68l11 10.84L183 85z"/>
        <path fill="#0C1445" d="M515 207l-11 10.84 11 6.16z"/>
        <path fill="#AA9FFB" d="M515 207l11 10.84-11 6.16z"/>
        <path fill="#0C1445" d="M348 253l-11 10.847L348 270z"/>
        <path fill="#AA9FFB" d="M348 253l11 10.847L348 270z"/>
        <path fill="#0C1445" d="M120 284l-11 10.835L120 301z"/>
        <path fill="#AA9FFB" d="M121 284l11 10.835L121 301z"/>
        <path fill="#74FCBF" d="M141 89.994L149.647 85 158 89.859 149.378 95z"/>
        <path fill="#60DA9A" d="M141 91v9.318l9 4.682-.13-9.26z"/>
        <path fill="#74FCBF" d="M159 91v9.487L150.128 105 150 95.824zM429 189l8.647-5 8.353 4.865-8.622 5.135z"/>
        <path fill="#60DA9A" d="M429 190v9.318l9 4.682-.13-9.26z"/>
        <path fill="#74FCBF" d="M445 189v9.487L436.128 203l-.128-9.176zM120 168l8.641-5 8.359 4.853-8.616 5.147z"/>
        <path fill="#60DA9A" d="M120 168v9.326l9 4.674-.117-9.256z"/>
        <path fill="#74FCBF" d="M137 168v9.499L128.115 182l-.115-9.164zM447 319.994l8.647-4.994 8.353 4.859-8.622 5.141z"/>
        <path fill="#60DA9A" d="M447 320v9.318l9 4.682-.13-9.26z"/>
        <path fill="#74FCBF" d="M465 320v9.487L456.128 334l-.128-9.176z"/>
        <path fill="#58BAF4" d="M288.988 301.419c-2.295.964-4.885.719-6.981-.661-1.649-1.322-1.249-3.199 1.024-4.177 2.294-.964 4.885-.719 6.98.661 1.649 1.362 1.187 3.225-1.023 4.177zM207.992 95.419c-2.296.964-4.887.719-6.985-.661-1.649-1.322-1.25-3.199 1.025-4.177 2.295-.964 4.887-.719 6.984.661 1.637 1.335 1.187 3.199-1.024 4.177zM108.992 76.419c-2.296.964-4.887.719-6.985-.661-1.649-1.322-1.25-3.199 1.025-4.177 2.295-.964 4.887-.719 6.984.661 1.637 1.335 1.187 3.199-1.024 4.177z"/>
        <path fill="#60DA9A" d="M469.992 247.419c-2.296.964-4.887.719-6.985-.661-1.649-1.322-1.25-3.199 1.025-4.177 2.295-.964 4.887-.719 6.984.661 1.637 1.335 1.187 3.199-1.024 4.177z"/>
        <path fill="#0C1445" d="M403 163.92s-21.868-.978-24.878-1.894c-3.01-.916-18.689-15.026-18.689-15.026L356 151.337s13.297 19.754 18.048 21.06c4.75 1.308 24.491 2.603 24.491 2.603L403 163.92z"/>
        <path fill="#FFF" d="M385.723 147.567s-2.127 9.847-1.654 13.86c.472 4.013 1.654 3.693 3.617 4.37 1.962.677 6.737-.222 10.343-4.456 3.605-4.234 3.664-13.675 1.595-16.531-2.068-2.856-13.9 2.757-13.9 2.757z"/>
        <path fill="#0C1445" d="M389.345 146.566l-1.069 10.478s.226-4.169 2.09-3.328c1.865.841-.677 5.097-.677 5.097s0 1.583 3.195 2.622c3.194 1.04 5.557.581 7.255-.854 1.698-1.434 2.66-4.354 2.767-8.77.107-4.416.463-8.238-1.532-10.292-1.995-2.053-11.875-4.676-15.948-2.968-4.073 1.707-1.959 8.411-1.187 9.203.772.791 5.106-1.188 5.106-1.188z"/>
        <path fill="#FFF" d="M396.197 162l.803 7-7.93-1.272-1.07-4.825z"/>
        <path fill="#58BAF4" d="M388.846 296.368s.875 6.068-1.552 8.01c-1.343 1.092-4.264.703-7.393-.826-3.13-1.529-8.86-6.456-7.764-7.548 3.118-3.107 9.932 1.99 9.932 1.99v-1.614M408.912 281.684l.158 1.267s-2.069 4.357-3.012 4.88c-.944.523-4.016-1.22-4.839 0-.823 1.22.774 3.486 3.085 4.09 2.31.605 9.108-2.405 10.39-4.648 1.283-2.242-1.887-8.273-1.887-8.273l-3.895 2.684z"/>
        <path fill="#0C1445" d="M398.148 163.097s-12.183 5.974-14.29 7.586c-2.109 1.612-9.26 16.639-9.26 16.639l4.703-19.523-6.372-1.612s-10.551 29.424-7.31 32.21c3.24 2.788 14.51-3.635 14.51-3.635l1.218 33.06-2.668 34.876 2.815 33.168a5.518 5.518 0 0 0 6.7 0l.537-33.374 6.993-21.91 2.034 20.504 11.27 19.899c.777.132 1.575 0 2.266-.376a3.636 3.636 0 0 0 1.706-2.423l-6.409-21.692s6.214-30.018 4.971-37.955c-3.253-20.832-.219-41.894-3.033-49.347-2.815-7.453-10.38-6.095-10.38-6.095z"/>
        <path fill="#FFF" d="M373 166.573s1.806-4.597 3.785-5.89c1.98-1.293 4.07 2.951 4.07 2.951s.878-5.634 1.62-5.634c.743 0 .656 5.28 0 7.146-.655 1.866-3.797 2.854-3.797 2.854L373 166.573zM360 146.945s-1.013-5.276-4.716-5.365c-3.703-.09-4.342 1.106-4.342 1.106s-4.981-4.488-5.79-3.56c-.807.928 1.774 3.395 3.378 4.996 1.604 1.602 1.906 3.814 3.968 4.488a19.957 19.957 0 0 1 4.426 2.39l3.076-4.055z"/>
        <path stroke="#091448" stroke-linecap="round" stroke-linejoin="round" d="M229 395.5l20.349-11.5L269 395.178 248.724 407z"/>
        <path stroke="#58BAF4" stroke-linecap="round" stroke-linejoin="round" stroke-width=".5" d="M337 383.5l20.343-11.5L377 383.178 356.717 395z"/>
        <path stroke="#58BAF4" stroke-linecap="round" stroke-linejoin="round" stroke-width=".25" d="M379 229s-3.76 29.454-3.984 34.297c-.224 4.842 1.978 33.703 1.978 33.703"/>
        <path stroke="#58BAF4" stroke-linecap="round" stroke-linejoin="round" stroke-width=".25" d="M375.005 228.087s-.524 1.588 9.662 1.905C394.854 230.31 406 221 406 221"/>
        <path stroke="#58BAF4" stroke-dasharray="6" stroke-linecap="round" stroke-linejoin="round" stroke-width=".25" d="M170 174l-97-56"/>
        <path fill="#74FCBF" d="M199.292 209L273 166.777V121l-74 42.562z"/>
        <path fill="#60DA9A" d="M273 147v19.735L199.122 209 199 189.41z"/>
        <path stroke="#396AEB" stroke-linecap="round" stroke-linejoin="round" d="M266 130s-6.84 35.137-27.404 35.636C216.135 166.184 205 195 205 195"/>
        <path fill="#458FF4" d="M203 196.003c0 .956.679 1.283 1.5.724.85-.585 1.407-1.599 1.5-2.73 0-.956-.679-1.283-1.5-.724-.85.585-1.407 1.599-1.5 2.73zM265 130.003c0 .956.679 1.283 1.5.724.85-.585 1.407-1.599 1.5-2.73 0-.956-.679-1.283-1.5-.724-.85.585-1.407 1.599-1.5 2.73z"/>
        <path fill="#FFF" d="M297.006 134L279 180l36-21.31z"/>
        <path fill="#0C1445" d="M197 38v13.093L235 74l-.012-13.093z"/>
        <path fill="#58BAF4" d="M236 60.907L274 38v13.093L236.012 74z"/>
        <path fill="#0C1445" d="M197 37.494L235.994 15 275 37.494 235.994 60z"/>
        <path fill="#396AEB" d="M238 66.247c0 1.679 1.34 2.247 3 1.286a6.29 6.29 0 0 0 3-4.78c0-1.679-1.34-2.247-3-1.286a6.29 6.29 0 0 0-3 4.78z"/>
        <path fill="#74FCBF" d="M247 59.224V63l23-13.224V46z"/>
        <path fill="#60DA9A" d="M253 60l17-9.37V47l-17 9.37z"/>
        <path fill="#0C1445" d="M197 22v13.08L235 58l-.012-13.093z"/>
        <path fill="#58BAF4" d="M236 44.907L274 22v13.08L236.012 58z"/>
        <path fill="#396AEB" d="M197 22.5L235.994 0 275 22.5 235.994 45zM238 50.247c0 1.679 1.34 2.247 3 1.286a6.29 6.29 0 0 0 3-4.78c0-1.679-1.34-2.247-3-1.286a6.29 6.29 0 0 0-3 4.78z"/>
        <path fill="#74FCBF" d="M247 44.224V48l23-13.224V31z"/>
        <path fill="#60DA9A" d="M253 44l17-9.37V31l-17 9.381z"/>
        <path fill="#0C1445" d="M207 18v3.016L236 37l-.012-2.908z"/>
        <path fill="#58BAF4" d="M235 34.092L264 18v3.159L235.012 37z"/>
        <path fill="#396AEB" d="M207 18.5L235.5 2 264 18.5 235.5 35z"/>
        <path fill="#58BAF4" d="M145 67v13.093L107 103l.012-13.093z"/>
        <path fill="#0C1445" d="M105 89.907L67 67v13.093L104.988 103z"/>
        <path fill="#0C1445" d="M145 67.494L105.994 45 67 67.494 105.994 90z"/>
        <path fill="#396AEB" d="M104 95.247c0 1.679-1.34 2.247-3 1.286a6.29 6.29 0 0 1-3-4.78c0-1.679 1.34-2.247 3-1.286a6.29 6.29 0 0 1 3 4.78z"/>
        <path fill="#74FCBF" d="M95 89.224V93L72 79.776V76z"/>
        <path fill="#60DA9A" d="M89 89l-17-9.37V76l17 9.37z"/>
        <path fill="#58BAF4" d="M145 52v13.085L107 88l.012-13.098z"/>
        <path fill="#0C1445" d="M105 74.902L67 52v13.085L104.988 88z"/>
        <path fill="#396AEB" d="M145 51.506L105.994 29 67 51.506 105.994 74zM104 79.247c0 1.679-1.34 2.247-3 1.286a6.29 6.29 0 0 1-3-4.78c0-1.679 1.34-2.247 3-1.286a6.29 6.29 0 0 1 3 4.78z"/>
        <path fill="#74FCBF" d="M95 73.224V77L72 63.776V60z"/>
        <path fill="#60DA9A" d="M89 73l-17-9.37V60l17 9.37z"/>
        <path fill="#0C1445" d="M78 49v3.004L107 68l-.012-2.908z"/>
        <path fill="#58BAF4" d="M105 65.092L134 49v3.147L105.012 68z"/>
        <path fill="#396AEB" d="M78 48.506L106.5 32 135 48.506 106.5 65z"/>
        <path fill="#58BAF4" d="M503 97v13.093L465 133l.012-13.093z"/>
        <path fill="#0C1445" d="M464 119.907L426 97v13.093L463.988 133z"/>
        <path fill="#0C1445" d="M504 97.5L465.006 75 426 97.5l39.006 22.5z"/>
        <path fill="#396AEB" d="M462 125.247c0 1.679-1.34 2.247-3 1.286a6.29 6.29 0 0 1-3-4.78c0-1.679 1.34-2.247 3-1.286a6.29 6.29 0 0 1 3 4.78z"/>
        <path fill="#74FCBF" d="M454 119.224V123l-23-13.224V106z"/>
        <path fill="#60DA9A" d="M448 119l-17-9.37V106l17 9.37z"/>
        <path fill="#58BAF4" d="M503 80v13.093L465 116l.012-13.093z"/>
        <path fill="#0C1445" d="M464 102.907L426 80v13.093L463.988 116z"/>
        <path fill="#396AEB" d="M504 81.494L465.006 59 426 81.494 465.006 104zM462 109.247c0 1.679-1.34 2.247-3 1.286a6.29 6.29 0 0 1-3-4.78c0-1.679 1.34-2.247 3-1.286a6.29 6.29 0 0 1 3 4.78z"/>
        <path fill="#74FCBF" d="M454 102.224V106l-23-13.224V89z"/>
        <path fill="#60DA9A" d="M448 102l-17-9.37V89l17 9.37z"/>
        <path fill="#0C1445" d="M436 79v3.004L465 98v-2.908z"/>
        <path fill="#58BAF4" d="M464 95.092L493 79v3.147L464 98z"/>
        <path fill="#396AEB" d="M436 78.506L464.5 62 493 78.506 464.5 95z"/>
        <path stroke="#58BAF4" stroke-linecap="round" stroke-linejoin="round" stroke-width=".5" d="M443 125l-35 20"/>
    </g>
</svg>
